name GIL06_slow2.mot
datacolumns 153
datarows 4
range 1.08333349 1.10833347
endheader

                time	           pelvis_tx	           pelvis_ty	           pelvis_tz	         pelvis_tilt	         pelvis_list	     pelvis_rotation	       hip_flexion_r	     hip_adduction_r	      hip_rotation_r	        knee_angle_r	       ankle_angle_r	    subtalar_angle_r	         mtp_angle_r	       hip_flexion_l	     hip_adduction_l	      hip_rotation_l	        knee_angle_l	       ankle_angle_l	    subtalar_angle_l	         mtp_angle_l	    lumbar_extension	      lumbar_bending	     lumbar_rotation	     ground_force_vx	     ground_force_vy	     ground_force_vz	     ground_force_px	     ground_force_py	     ground_force_pz	     ground_force_vx	     ground_force_vy	     ground_force_vz	     ground_force_px	     ground_force_py	     ground_force_pz	     ground_torque_x	     ground_torque_y	     ground_torque_z	     ground_torque_x	     ground_torque_y	     ground_torque_z	    ground_marker_px	    ground_marker_py	    ground_marker_pz	    ground_marker_px	    ground_marker_py	    ground_marker_pz	    ground_marker_px	    ground_marker_py	    ground_marker_pz	    ground_marker_px	    ground_marker_py	    ground_marker_pz	    ground_marker_px	    ground_marker_py	    ground_marker_pz	    ground_marker_px	    ground_marker_py	    ground_marker_pz	    ground_marker_px	    ground_marker_py	    ground_marker_pz	    ground_marker_px	    ground_marker_py	    ground_marker_pz	    ground_marker_px	    ground_marker_py	    ground_marker_pz	    ground_marker_px	    ground_marker_py	    ground_marker_pz	    ground_marker_px	    ground_marker_py	    ground_marker_pz	    ground_marker_px	    ground_marker_py	    ground_marker_pz	    ground_marker_px	    ground_marker_py	    ground_marker_pz	    ground_marker_px	    ground_marker_py	    ground_marker_pz	    ground_marker_px	    ground_marker_py	    ground_marker_pz	    ground_marker_px	    ground_marker_py	    ground_marker_pz	    ground_marker_px	    ground_marker_py	    ground_marker_pz	    ground_marker_px	    ground_marker_py	    ground_marker_pz	    ground_marker_px	    ground_marker_py	    ground_marker_pz	    ground_marker_px	    ground_marker_py	    ground_marker_pz	    ground_marker_px	    ground_marker_py	    ground_marker_pz	    ground_marker_px	    ground_marker_py	    ground_marker_pz	    ground_marker_px	    ground_marker_py	    ground_marker_pz	    ground_marker_px	    ground_marker_py	    ground_marker_pz	    ground_marker_px	    ground_marker_py	    ground_marker_pz	    ground_marker_px	    ground_marker_py	    ground_marker_pz	    ground_marker_px	    ground_marker_py	    ground_marker_pz	    ground_marker_px	    ground_marker_py	    ground_marker_pz	    ground_marker_px	    ground_marker_py	    ground_marker_pz	    ground_marker_px	    ground_marker_py	    ground_marker_pz	    ground_marker_px	    ground_marker_py	    ground_marker_pz	    ground_marker_px	    ground_marker_py	    ground_marker_pz	    ground_marker_px	    ground_marker_py	    ground_marker_pz	    ground_marker_px	    ground_marker_py	    ground_marker_pz	    ground_marker_px	    ground_marker_py	    ground_marker_pz	    ground_marker_px	    ground_marker_py	    ground_marker_pz	    ground_marker_px	    ground_marker_py	    ground_marker_pz	
          1.08333349	          2.15037918	          0.85182059	         -0.22609068	         -3.50897598	         -0.81832254	         -0.82112861	          4.35615158	          7.27047014	          1.34893441	         -8.38858032	          4.48123360	          0.00000000	          0.00000000	         28.96187592	         -6.72801304	          1.38853717	        -50.70146942	          7.29018259	          0.00000000	          0.00000000	        -11.71722412	          2.77662921	          5.30195141	         -9.25845333	        754.64813417	        -17.40993218	          2.04437476	          0.00000000	         -0.20979227	          0.00000000	          0.00000000	          0.00000000	          1.65167761	          0.00000000	         -0.27337686	          0.00000000	          1.79182068	          0.00000000	          0.00000000	          0.00000000	          0.00000000	          2.04280853	          0.77434242	         -0.22715420	          2.02267861	          0.77954358	         -0.14826448	          2.02423358	          0.77680570	         -0.30386177	          2.02846551	          0.41882297	         -0.18779840	          2.19129848	          0.42603883	         -0.34176329	          1.98175681	          0.06122436	         -0.21018706	          2.04168200	          0.10243223	         -0.30440062	          2.15037918	          0.85182059	         -0.22609068	          2.14913678	          0.85400862	         -0.10174174	          2.15162182	          0.84963250	         -0.35043964	          1.90530348	          0.92199188	         -0.19856097	          1.90496933	          0.91775864	         -0.25341552	          2.02957392	          0.41105193	         -0.11673061	          2.18997312	          0.43309432	         -0.41290194	          2.01442170	          0.43627474	         -0.26124200	          2.20338583	          0.40807414	         -0.25710076	          1.97645283	          0.05953208	         -0.17209174	          2.02490950	          0.10607936	         -0.33997634	          1.98320210	          0.07391992	         -0.24631935	          2.04648566	          0.12195107	         -0.26502371	          1.95827556	          1.35082614	         -0.22543061	          2.08114457	          1.27638459	         -0.19894373	          2.07568049	          1.28068161	         -0.28012690	          2.06062889	          1.27449012	         -0.25081611	          2.10747004	          1.19815218	         -0.25675273	          2.18400621	          0.55915862	         -0.09285991	          2.27753592	          0.66923916	         -0.32339334	          2.14905190	          0.58572835	         -0.11295177	          2.23010087	          0.66171640	         -0.33338049	          2.11923289	          0.51510233	         -0.12921137	          2.24805808	          0.59091252	         -0.33571553	          2.08567929	          0.19119419	         -0.18301792	          2.06147933	          0.19814631	         -0.41764101	          2.03865337	          0.20451955	         -0.18848905	          2.07024050	          0.21273898	         -0.37309542	          2.09183693	          0.04372483	         -0.20425043	          2.12913680	          0.06472598	         -0.32392678	
          1.09166682	          2.15607309	          0.85134292	         -0.22569400	         -3.60260105	         -0.62431055	         -1.08079338	          3.88216496	          7.15141964	          1.54219377	         -8.15251637	          4.79674339	          0.00000000	          0.00000000	         29.48720169	         -6.38068438	          1.52382827	        -48.54420853	          7.51607084	          0.00000000	          0.00000000	        -11.72060394	          2.77884722	          5.26021099	         -6.85954704	        755.13908850	        -16.82996157	          2.04675671	          0.00000000	         -0.21043304	          0.00000000	          0.00000000	          0.00000000	          1.65273193	          0.00000000	         -0.27336243	          0.00000000	          2.29131885	          0.00000000	          0.00000000	          0.00000000	          0.00000000	          2.04843378	          0.77397430	         -0.22748163	          2.02785039	          0.77910936	         -0.14869054	          2.03022170	          0.77668685	         -0.30428272	          2.03028822	          0.41857862	         -0.18820372	          2.20023465	          0.42703408	         -0.33964458	          1.98170936	          0.06122993	         -0.21043621	          2.06467867	          0.09702449	         -0.30460429	          2.15607309	          0.85134292	         -0.22569400	          2.15417671	          0.85328013	         -0.10127241	          2.15796924	          0.84940577	         -0.35011560	          1.91083097	          0.92198932	         -0.19935496	          1.91087651	          0.91762811	         -0.25427285	          2.03117514	          0.41079557	         -0.11713412	          2.19956040	          0.43390352	         -0.41081065	          2.01724911	          0.43334886	         -0.26060644	          2.21211815	          0.40883946	         -0.25415069	          1.97642648	          0.05957769	         -0.17233616	          2.04766583	          0.10024308	         -0.34010714	          1.98307049	          0.07374357	         -0.24655728	          2.06934643	          0.11593176	         -0.26513445	          1.96405756	          1.35064209	         -0.22543897	          2.08677197	          1.27587366	         -0.19858301	          2.08176827	          1.28036320	         -0.28032914	          2.06639719	          1.27421629	         -0.25085744	          2.11329818	          1.19772232	         -0.25665227	          2.18695927	          0.55766344	         -0.09290859	          2.28419375	          0.67058969	         -0.32106373	          2.15040898	          0.58439857	         -0.11336096	          2.23660660	          0.66228575	         -0.33146468	          2.12196445	          0.51425052	         -0.12921521	          2.25531960	          0.59190172	         -0.33330479	          2.08636785	          0.19071169	         -0.18338123	          2.08008432	          0.19452049	         -0.41713390	          2.03931880	          0.20384331	         -0.18876804	          2.08877611	          0.20910330	         -0.37213239	          2.09198904	          0.04372193	         -0.20429674	          2.15368748	          0.06362017	         -0.32465997	
          1.10000014	          2.16181731	          0.85083944	         -0.22537169	         -3.68913174	         -0.45620769	         -1.34266376	          3.41102791	          7.04678154	          1.70955718	         -7.93785715	          5.11931562	          0.00000000	          0.00000000	         29.94505310	         -6.05318260	          1.67663586	        -46.29043961	          7.63720179	          0.00000000	          0.00000000	        -11.62841415	          2.72203445	          5.22606945	         -4.46262745	        755.70656316	        -16.34504344	          2.04927026	          0.00000000	         -0.21105954	          0.00000000	          0.00000000	          0.00000000	          1.65388135	          0.00000000	         -0.27335101	          0.00000000	          2.79108301	          0.00000000	          0.00000000	          0.00000000	          0.00000000	          2.05412722	          0.77357340	         -0.22784248	          2.03309083	          0.77867228	         -0.14915027	          2.03626657	          0.77649355	         -0.30473173	          2.03223467	          0.41831648	         -0.18860759	          2.20877743	          0.42786130	         -0.33750439	          1.98169553	          0.06123898	         -0.21068364	          2.08777952	          0.09200744	         -0.30473962	          2.16181731	          0.85083944	         -0.22537169	          2.15927696	          0.85258240	         -0.10091295	          2.16435766	          0.84909648	         -0.34983042	          1.91636860	          0.92195535	         -0.20021291	          1.91681039	          0.91744554	         -0.25517365	          2.03287673	          0.41053289	         -0.11753543	          2.20877051	          0.43454966	         -0.40869090	          2.01986599	          0.43327913	         -0.26126504	          2.21646214	          0.41023347	         -0.25211009	          1.97643197	          0.05962818	         -0.17257920	          2.07054305	          0.09476046	         -0.34017360	          1.98294199	          0.07389493	         -0.24679686	          2.09138560	          0.11111251	         -0.26507306	          1.96950364	          1.35043311	         -0.22557555	          2.09234691	          1.27520251	         -0.19846015	          2.08777046	          1.27974951	         -0.28060824	          2.07218552	          1.27388728	         -0.25089830	          2.11903858	          1.19703519	         -0.25660190	          2.18995976	          0.55616605	         -0.09292946	          2.29072428	          0.67169613	         -0.31872541	          2.15350509	          0.58330905	         -0.11324952	          2.24376464	          0.66344517	         -0.33005828	          2.12479305	          0.51311678	         -0.12951028	          2.26232553	          0.59245783	         -0.33115256	          2.08711815	          0.19020069	         -0.18373898	          2.09863853	          0.19103882	         -0.41658548	          2.04032969	          0.20351446	         -0.18894176	          2.10657501	          0.20594348	         -0.37146789	          2.09212923	          0.04371677	         -0.20436768	          2.17815232	          0.06285245	         -0.32527548	
          1.10833347	          2.16760445	          0.85031939	         -0.22512212	         -3.76722622	         -0.31350616	         -1.60385787	          2.94159317	          6.95332527	          1.84650302	         -7.74193478	          5.43393803	          0.00000000	          0.00000000	         30.33626938	         -5.74341440	          1.85040808	        -43.95829010	          7.65647650	          0.00000000	          0.00000000	        -11.51978302	          2.70546579	          5.57609463	         -2.25421793	        756.44103097	        -15.97881624	          2.05193433	          0.00000000	         -0.21166092	          0.00000000	          0.00000000	          0.00000000	          1.65515698	          0.00000000	         -0.27330682	          0.00000000	          3.28944653	          0.00000000	          0.00000000	          0.00000000	          0.00000000	          2.05987167	          0.77315170	         -0.22823724	          2.03839779	          0.77823603	         -0.14963746	          2.04235864	          0.77623314	         -0.30520329	          2.03430152	          0.41804054	         -0.18899010	          2.21694374	          0.42850596	         -0.33535227	          1.98173130	          0.06126844	         -0.21092917	          2.11089349	          0.08741758	         -0.30480352	          2.16760445	          0.85031939	         -0.22512212	          2.16443586	          0.85192162	         -0.10066947	          2.17077303	          0.84871715	         -0.34957477	          1.92194152	          0.92187512	         -0.20113161	          1.92277336	          0.91721678	         -0.25609770	          2.03467369	          0.41027105	         -0.11791447	          2.21762061	          0.43501899	         -0.40655178	          2.02249002	          0.43526548	         -0.26357731	          2.22133446	          0.41120118	         -0.25076875	          1.97648346	          0.05969829	         -0.17282084	          2.09346557	          0.08966785	         -0.34017944	          1.98316753	          0.07369511	         -0.24704634	          2.11331367	          0.10675427	         -0.26493403	          1.97492981	          1.35017669	         -0.22606531	          2.09818053	          1.27463114	         -0.19839676	          2.09351158	          1.27938366	         -0.28073874	          2.07800603	          1.27349615	         -0.25093201	          2.12480879	          1.19660687	         -0.25685334	          2.19299746	          0.55466908	         -0.09290433	          2.29713631	          0.67254043	         -0.31637985	          2.15774941	          0.58270258	         -0.11338717	          2.25061226	          0.66451603	         -0.32847166	          2.12720823	          0.51187867	         -0.13050681	          2.26913905	          0.59296626	         -0.32916722	          2.08792949	          0.18966791	         -0.18408284	          2.11712861	          0.18772034	         -0.41600019	          2.04120970	          0.20304726	         -0.18936490	          2.12401128	          0.20230602	         -0.37108871	          2.09223676	          0.04370695	         -0.20446344	          2.20246720	          0.06242958	         -0.32575390	
